<?xml version="1.0" encoding="UTF-8"?>
<svg xmlns="http://www.w3.org/2000/svg" viewBox="0 0 500 600">
  <!-- Background gradient -->
  <defs>
    <linearGradient id="bgGradient" x1="0%" y1="0%" x2="100%" y2="100%">
      <stop offset="0%" style="stop-color:#1e3a8a;stop-opacity:1" />
      <stop offset="100%" style="stop-color:#5b21b6;stop-opacity:1" />
    </linearGradient>
  </defs>
  
  <!-- Tree Symbol -->
  <g transform="translate(250, 280) scale(1.8)">
    <path d="M0 0 Q0 0 -5 -10 Q-10 -20 0 -35 Q10 -20 5 -10 Q0 0 0 0 Z" fill="white"/>
    <path d="M0 0 Q-20 -5 -30 -15 Q-40 -25 -25 -40 Q-15 -25 -10 -20 Q-5 -15 0 0 Z" fill="white"/>
    <path d="M0 0 Q20 -5 30 -15 Q40 -25 25 -40 Q15 -25 10 -20 Q5 -15 0 0 Z" fill="white"/>
    <path d="M-25 -40 Q-35 -45 -45 -55 Q-55 -65 -40 -80 Q-30 -65 -25 -60 Q-20 -55 -25 -40 Z" fill="white"/>
    <path d="M25 -40 Q35 -45 45 -55 Q55 -65 40 -80 Q30 -65 25 -60 Q20 -55 25 -40 Z" fill="white"/>
    <path d="M0 -35 Q-5 -45 -5 -55 Q-5 -65 0 -80 Q5 -65 5 -55 Q5 -45 0 -35 Z" fill="white"/>
    <path d="M-40 -80 Q-50 -85 -55 -95 Q-60 -105 -45 -120 Q-35 -105 -35 -100 Q-35 -95 -40 -80 Z" fill="white"/>
    <path d="M0 -80 Q-5 -90 -5 -100 Q-5 -110 0 -125 Q5 -110 5 -100 Q5 -90 0 -80 Z" fill="white"/>
    <path d="M40 -80 Q50 -85 55 -95 Q60 -105 45 -120 Q35 -105 35 -100 Q35 -95 40 -80 Z" fill="white"/>
    <path d="M0 0 L0 30 Q-5 35 0 40 Q5 35 0 30 Z" fill="white"/>
  </g>
  
  <!-- FAITHIQ Text -->
  <text x="250" y="450" font-family="Arial, sans-serif" font-size="70" font-weight="bold" text-anchor="middle" fill="white">FAITHIQ</text>
  
  <!-- Tagline -->
  <text x="250" y="500" font-family="Arial, sans-serif" font-size="22" font-weight="600" text-anchor="middle" fill="rgba(255,255,255,0.8)">FAITH. VALUE. REWARD.</text>
  
  <!-- Underline -->
  <line x1="150" y1="515" x2="350" y2="515" stroke="white" stroke-width="3"/>
</svg>